#!OML:ASF E:/inclinewalkrobotboard/Project1/Captureday1/Session1/subject1.ASF
:FULLY-SPECIFIED
:DEGREES
88
root 0 0 0 1.6979219632296623 -10.779552937968777 0.7444359958700557
lowerback 0.08417876987741768 -1.5681688161977867 -2.4592450973755513
upperback -0.6490257465771545 -2.057853607025786 1.965512143298879
thorax -0.5265696175627734 -1.0106391460486879 3.357929578841998
lowerneck -24.556101116071687 -1.4910817885038472 -7.440681667711426
upperneck 28.489861405244014 0.6046591563406138 1.552689279647906
head 13.760998948861602 -0.5427361651347999 2.115829765129804
rclavicle -3.715347473788355E-15 4.097074276025677E-17
rhumerus -33.44997309880112 -4.858175980855145 -79.4343726577172
rradius 29.40348964899442
rwrist 20.408734360770975
rhand -17.31646326169065 8.75105720904855
rfingers 7.1250199999999415
rthumb 8.926189137487913 -21.04609223471982
lclavicle -1.6705245640150387E-15 -1.949460658525071E-16
lhumerus -22.031065977601056 -5.654030381530827 91.98724709680359
lradius 65.1201798680428
lwrist 1.8600062286607524
lhand -28.925425384830675 20.88290265226625
lfingers 7.125020000000025
lthumb -2.2898173982943026 50.88000573569894
rfemur -3.134864816741265 8.018816435667437 38.477228398955205
rtibia 25.982199682822188
rfoot -18.788321693849916 -7.095487641840791
rtoes 12.918577451424142
lfemur -20.047566862917783 2.607130578694235 -13.82964049637982
ltibia 56.791514301501124
lfoot -0.1681928055002171 -5.891742093164839
ltoes -7.625011831959625
89
root 0 0 0 1.7060225321774414 -10.75230032630606 0.746714973660817
lowerback 0.06302842821103694 -1.5539578892139347 -2.488127799686776
upperback -0.6603734281421842 -2.037893810133184 1.9429856622429058
thorax -0.5281702774436802 -0.9996010172194818 3.351494730376242
lowerneck -24.450808170098217 -1.518181710343537 -7.490398227304644
upperneck 28.54002992581649 0.5403039614515681 1.6417599790249457
head 13.748944955945015 -0.5613153320275068 2.1450441017782342
rclavicle -2.9683742141986256E-15 8.024479608235277E-16
rhumerus -32.806038951915085 -4.597310465300506 -80.3787892315022
rradius 30.13110480831784
rwrist 20.030383984080544
rhand -17.414263910609925 8.754310330522339
rfingers 7.125019999999942
rthumb 8.832801443376407 -21.06239560826512
lclavicle -6.096883388459898E-16 4.6828037006003845E-16
lhumerus -21.821510042846747 -5.341037868380749 92.00881124785124
lradius 64.98849685511934
lwrist 1.706270270922611
lhand -29.04771164032186 20.8496365162392
lfingers 7.125020000000025
lthumb -2.4084209639382435 50.836907349533604
rfemur 1.0233481411899596 8.553837333912739 38.7127432980939
rtibia 23.49667564937643
rfoot -22.1105066922394 -8.247368085596715
rtoes 9.629927611880035
lfemur -23.253879495700577 2.9016902398042386 -13.441964145150994
ltibia 55.678832469043684
lfoot -2.959402869602397 -3.897062246982716
ltoes -6.708025193770193
90
root 0 0 0 1.720471937201529 -10.715187467491665 0.7576437315280451
lowerback 0.047458413654940745 -1.5412239990385561 -2.5167507501496527
upperback -0.662685176872056 -2.021002395852298 1.926514627328706
thorax -0.5233199171164984 -0.9901877974798643 3.35178853629246
lowerneck -24.430547580480955 -1.5611104012850836 -7.537528675825712
upperneck 28.432308083015382 0.45133505128925666 1.7623407085613088
head 13.69128850687806 -0.5821796534084237 2.179412192133088
rclavicle -1.7827805545367612E-15 1.0135185173952864E-15
rhumerus -31.856881422325774 -3.3086584683299454 -81.40619812625877
rradius 31.002092490520692
rwrist 19.346941298897423
rhand -17.719378671688748 8.866610728147172
rfingers 7.125019999999941
rthumb 8.538711932882828 -20.96656898193015
lclavicle 3.4697787709085316E-16 4.582712192757367E-16
lhumerus -21.414636482686692 -4.776221420435347 91.79337096411116
lradius 64.8489263824788
lwrist 1.661033745648663
lhand -29.017864813780157 20.794843101224934
lfingers 7.125020000000025
lthumb -2.37737248833432 50.77821134932145
rfemur 3.548119987544716 8.885987675608233 38.51386732009719
rtibia 21.213437080102985
rfoot -23.35968858414564 -8.635733352549641
rtoes 6.083781407498092
lfemur -25.951405985791034 2.303220585901807 -12.605333647573426
ltibia 51.153960889511524
lfoot -4.833348933528922 -1.8377282240897337
ltoes -6.0930755018738525
91
root 0 0 0 1.7467947531778119 -10.686978618603282 0.7773641692068494
lowerback 0.01421751792407222 -1.5325355468328026 -2.5484176838385366
upperback -0.6569614989693042 -2.010063778799857 1.8995555524376
thorax -0.5010878944481917 -0.9840760940609863 3.343258261420001
lowerneck -24.452286700837867 -1.6201939442635445 -7.597599108413882
upperneck 28.28475645589655 0.34055539865871165 1.903324135749836
head 13.625694689217605 -0.608343978051085 2.218454759383431
rclavicle -7.218016447097443E-15 1.2876829223103704E-15
rhumerus -30.94439822953357 -1.0229266926475598 -82.20343849009338
rradius 31.814545251175108
rwrist 18.55584384787876
rhand -18.291361445114465 9.020492239957445
rfingers 7.125019999999945
rthumb 7.989090265598431 -20.848445691023443
lclavicle 4.4208640029945245E-16 -1.1004464864741205E-16
lhumerus -20.844320993444114 -3.887993576936701 91.3407150119683
lradius 64.6647663861524
lwrist 1.7017775465018379
lhand -28.82525960923832 20.652299420555043
lfingers 7.125020000000027
lthumb -2.1863470706200454 50.636442352587494
rfemur 8.086019625964395 8.97117194977682 37.66376848900396
rtibia 20.86687701952783
rfoot -23.307062180561246 -7.93885628259304
rtoes 0.5443780141978665
lfemur -31.292842301916497 -0.9281078691084979 -10.035018136130306
ltibia 34.17879282308311
lfoot -6.863183389301089 3.3316455812168706
ltoes -4.669029668253658
92
root 0 0 0 1.753365028957639 -10.696594027198838 0.7825454942641334
lowerback -0.002642103831547171 -1.5332229491525493 -2.558500828136284
upperback -0.6576140122998437 -2.0108512755176395 1.8775925073808912
thorax -0.4930197100707515 -0.9840511490661371 3.3265817880752553
lowerneck -24.426757233124505 -1.6264266969042946 -7.614305741736934
upperneck 28.34680435803603 0.3290887381114338 1.913151881973139
head 13.639948787046887 -0.6128805517316095 2.2221720366741033
rclavicle -9.189250358692812E-15 1.5352437274510068E-15
rhumerus -30.83290257462233 -0.2879292814657415 -82.19211690872564
rradius 31.87271930013852
rwrist 18.377553652262783
rhand -18.491843744832586 9.100670276700356
rfingers 7.125019999999946
rthumb 7.796637635587219 -20.78648782207629
lclavicle 7.052052850821292E-16 -2.262094898158854E-16
lhumerus -20.591490980091148 -3.282365620743157 91.0962713843868
lradius 64.5479747137655
lwrist 1.672054173411531
lhand -28.728980866546287 20.579386366296447
lfingers 7.125020000000028
lthumb -2.0895612962061136 50.56248499305619
rfemur 12.043108116884762 8.56038657461937 36.452231777259044
rtibia 24.646779996230567
rfoot -21.503771743315873 -6.366211191701898
rtoes -3.872017870913548
lfemur -31.536298134421443 -4.150577389990504 -8.915230084582511
ltibia 22.806735526927973
lfoot -5.566997456926927 4.473059611559928
ltoes -3.866646378667144
93
root 0 0 0 1.7519893740913055 -10.715247636781688 0.7821108208214644
lowerback -0.010410501437517983 -1.5365153716103186 -2.5648386044311886
upperback -0.6607477684002433 -2.014552809173067 1.8552911391788867
thorax -0.49107403645124015 -0.9853076535264537 3.307076668093357
lowerneck -24.373971577512137 -1.6155512480685172 -7.619028989323326
upperneck 28.485360254260893 0.346592666280668 1.8847572404993242
head 13.67882686683339 -0.6111848018540299 2.2155880785676763
rclavicle -1.0530643014253438E-14 1.3563462938331078E-15
rhumerus -30.85548245557385 0.04961890014098014 -82.01905844431069
rradius 31.771319024964725
rwrist 18.30556587269321
rhand -18.57546208899486 9.177541358234182
rfingers 7.125019999999942
rthumb 7.715662287930341 -20.711020900856553
lclavicle -8.847200344104603E-16 -9.359549849109398E-17
lhumerus -20.3735316433764 -2.5897289507165895 90.90941287718829
lradius 64.35310556036538
lwrist 1.5585954041492678
lhand -28.70718360356339 20.50168465162496
lfingers 7.125020000000028
lthumb -2.0622217716023483 50.47825298628466
rfemur 14.303608869362195 7.5177859466690355 34.73726690961074
rtibia 31.691653843088474
rfoot -17.541944821576045 -4.093739148605525
rtoes -7.037314746685342
lfemur -30.213881771306475 -5.210820498588111 -9.338378431749204
ltibia 19.6992786515703
lfoot -4.268642536848436 3.8305486822324912
ltoes -3.077581001818646
